<?xml version="1.0" encoding="UTF-8"?>
<svg width="70px" height="24px" viewBox="0 0 70 24" version="1.1" xmlns="http://www.w3.org/2000/svg" xmlns:xlink="http://www.w3.org/1999/xlink">
    <!-- Generator: Sketch 51.2 (57519) - http://www.bohemiancoding.com/sketch -->
    <title>uba-grey-logo</title>
    <desc>Created with Sketch.</desc>
    <defs></defs>
    <g id="Page-1" stroke="none" stroke-width="1" fill="none" fill-rule="evenodd">
        <g id="Group-Copy" fill="#333333">
            <path d="M23.0607333,16.1947333 C24.5284667,16.5181333 25.1752,17.339 25.1752,18.4834 C25.1752,18.5331333 25.1504,19.0057333 25.0757333,19.2545333 C25.0011333,19.5032667 24.8642667,19.7230667 24.6279333,20.0257333 C23.8930667,20.9668667 22.4885333,21.7173333 21.6178667,21.7173333 L19.1302,21.7173333 C19.5282,19.9013333 19.8764667,18.0356 20.2745333,16.2444667 C20.2745333,16.1947333 20.2994,16.1698667 20.3491333,16.145 L22.2398,16.0952667 C22.2895333,16.0952667 22.7870667,16.145 23.0607333,16.1947333 Z M39.5539333,18.2843333 L35.0512667,18.2843333 L38.335,13.2592667 L39.5539333,18.2843333 Z M25.5981333,11.7418 C25.5981333,11.7915333 25.4986,12.2642 25.4737333,12.513 C25.424,13.0354 24.9513333,13.8066 24.2548,14.2294667 C24.0060667,14.3787333 22.9860667,14.9758 22.8368667,14.9758 L20.6228,14.9758 C20.6974,14.5777333 20.7720667,14.1548667 20.8466667,13.7568 C20.8964667,13.5080667 20.9710667,13.2344 20.9959333,12.9856 C21.0457333,12.7368667 21.1203333,12.4632 21.1452,12.2144667 C21.195,11.9656667 21.2696,11.6920667 21.2944667,11.4432667 C21.3442,11.1944667 21.3649333,11.0576667 21.4188667,10.6721333 C21.4727333,10.2284667 21.4396,10.2118667 21.6925333,10.2243333 L23.5582,10.1745333 C24.3542667,10.1745333 25.5981333,10.5974667 25.5981333,11.7418 Z M40.3748667,8.20933333 L44.1064,23.5582667 L40.7480667,23.5582667 L40.151,20.5481333 L33.6582,20.5481333 L31.6680667,23.5582667 L28.8818667,23.5582667 L39.2803333,8.20933333 L40.3748667,8.20933333 Z M25.5235333,8.20933333 C27.7624,8.45806667 28.8072667,9.50286667 28.8072667,11.2442667 C28.8072667,13.11 27.5136667,14.5031333 25.2498,15.2494 C25.2748,15.2743333 25.3245333,15.2743333 25.3494,15.2743333 C27.0161333,15.5230667 28.2102,16.4932 28.2102,18.0107333 C28.2102,20.4237333 26.7176,22.6626667 23.4836,23.3840667 C23.3344,23.4089333 22.3392667,23.608 21.991,23.608 L15.6474667,23.608 L18.8565333,8.20933333 L25.5235333,8.20933333 Z M5.29873333,8.20933333 C5.04993333,9.5278 4.77633333,10.7716 4.52753333,12.0154 C4.32853333,12.9358667 4.12953333,13.9060667 3.9554,14.8514 C3.70666667,16.2444667 3.3086,17.5878 3.3086,18.9808667 C3.3086,20.4984 3.80613333,21.8666 5.7714,21.8666 C7.66206667,21.8666 9.5278,20.6227333 10.1248,18.0853333 C10.896,14.8016667 11.5428,11.4930667 12.2393333,8.20933333 L15.0752667,8.20933333 L15.0752667,8.28393333 C14.2792,11.8910667 13.5329333,15.4982 12.712,19.0804667 C12.2766667,20.2122667 12.0838667,20.3926 11.7418,20.8466667 C10.2492,22.9114 8.25906667,23.5831333 6.5426,23.7821333 C6.3436,23.807 5.99526667,23.8567333 5.9206,23.8567333 L4.4032,23.8567333 C4.10466667,23.8318667 3.78126667,23.7821333 3.5076,23.7323333 C3.23393333,23.6826 2.93546667,23.608 2.6618,23.5333333 C0.746266667,23.0607333 0,21.2198 0,19.8516 L0,19.2545333 C0.0248666667,19.0804667 0.0248666667,18.8814 0.0498,18.6824 C0.771133333,15.1996667 1.4926,11.6920667 2.214,8.20933333 L5.29873333,8.20933333 Z M56.8682,23.4586667 C56.4701333,23.5084 55.699,23.608 55.6244,23.608 L49.4300667,23.608 L53.6093333,3.98026667 C55.7984667,8.25906667 57.9876667,12.5876 60.1519333,16.9161333 C60.525,17.8614 60.8733333,18.8814 60.8733333,19.8516 C60.8733333,22.0158667 59.3558,23.0607333 56.8682,23.4586667 Z M69.9782,0 L65.7740667,19.6277333 C64.5053333,17.1648667 63.2366,14.6772667 61.9927333,12.2144667 C61.2962667,10.8462 60.5996667,9.42826667 59.9031333,8.08493333 C59.6792,7.61226667 59.4304667,7.18933333 59.2314667,6.7416 C59.0076,6.24406667 58.5100667,4.72653333 58.5100667,4.00513333 L58.5100667,3.48273333 C58.5349333,3.23393333 58.5598,2.93546667 58.6344,2.71153333 C59.3806667,0.348266667 62.142,0.1244 63.7838667,0 L69.9782,0 Z" id="uba-grey-logo"></path>
        </g>
    </g>
</svg>